<svg xmlns="http://www.w3.org/2000/svg" width="575.489" height="175.74"><path fill="#006EA9" d="M575.443 159.429c0 9.1-7.615 16.476-17.008 16.476H17.018c-9.393 0-17.008-7.376-17.008-16.476V16.632C.01 7.531 7.625.157 17.018.157h541.417c9.393 0 17.008 7.374 17.008 16.475v142.797z"/><path fill="#FFF" d="M20.943 155.661l6.897-20.492h4.439l6.645 20.492h-4.16l-1.452-4.535h-6.701l-1.48 4.535h-4.188zm6.701-8.006h4.747l-2.29-7.334-2.457 7.334zM41.018 151.687v-16.518h3.909v15.426c0 .709.195 1.139.587 1.287.279.113.66.168 1.144.168h7.008v3.611h-8.404c-2.829 0-4.244-1.324-4.244-3.974M55.76 142.056v-1.764c0-1.959.531-3.35 1.592-4.17.967-.729 2.28-1.102 3.937-1.121h1.409c.717 0 1.769.076 3.156.225 1.386.15 2.499.346 3.336.588v3.08c-2.121-.188-3.811-.281-5.067-.281h-2.025c-.838 0-1.452.113-1.842.336-.392.225-.587.775-.587 1.652v1.008c0 .783.158 1.307.475 1.568.316.262.884.391 1.703.391h3.239c2.122 0 3.546.85 4.272 2.55.372.856.558 1.817.558 2.882v1.371c0 2.502-.828 4.135-2.485 4.9-.856.41-1.908.615-3.155.615-3.369 0-6.003-.279-7.902-.84v-3.08c2.048.207 3.835.309 5.361.309 1.526 0 2.416-.018 2.667-.057a3.09 3.09 0 00.768-.223c.558-.242.838-.738.838-1.484v-1.092c0-.971-.308-1.568-.922-1.791-.242-.093-.549-.141-.922-.141h-3.127c-3.518 0-5.277-1.81-5.277-5.431M70.95 155.661l6.897-20.492h4.439l6.646 20.492h-4.16l-1.452-4.535h-6.701l-1.48 4.535H70.95zm6.701-8.006h4.747l-2.29-7.334-2.457 7.334zM91.053 137.688c.744-1.229 1.777-2.043 3.099-2.436.726-.205 1.545-.307 2.457-.307 2.662 0 5.035.307 7.12.924v3.078a16.808 16.808 0 00-.767-.084 57.6 57.6 0 01-.824-.07 117.45 117.45 0 00-1.047-.084 45.612 45.612 0 00-1.131-.068 36.387 36.387 0 00-2.345-.084c-.689 0-1.225.041-1.606.125a3.01 3.01 0 00-1.103.504c-.353.252-.614.631-.782 1.135-.372 1.082-.558 2.809-.558 5.179s.274 4.084.823 5.136c.549 1.055 1.597 1.582 3.142 1.582 1.749 0 3.518-.055 5.305-.168l.893-.055v3.051c-1.675.523-3.835.783-6.477.783h-.643c-2.494-.018-4.277-.913-5.347-2.688-1.07-1.771-1.605-4.408-1.605-7.908s.465-6.013 1.396-7.545M107.555 135.925a5.06 5.06 0 011.382-.588c.456-.111.819-.168 1.089-.168.269 0 1.614.033 4.034.098 2.42.066 4.226.184 5.417.352v3.246h-8.069c-.689 0-1.117.168-1.285.504-.111.262-.167.617-.167 1.064v3.191l8.265.28v3.247l-8.265.253v3.19c0 .709.196 1.139.586 1.287.28.113.661.168 1.145.168h7.79v3.221c-.931.131-3.23.262-6.896.391l-1.815.084h-.517c-.195 0-.451-.014-.768-.041-.316-.029-.697-.127-1.144-.295a3.97 3.97 0 01-1.173-.673c-.745-.671-1.117-1.706-1.117-3.106v-12.205c0-1.697.503-2.865 1.508-3.5M129.808 137.688c.744-1.229 1.777-2.043 3.099-2.436.726-.205 1.545-.307 2.457-.307 2.662 0 5.035.307 7.12.924v3.078a16.808 16.808 0 00-.767-.084 57.6 57.6 0 01-.824-.07 117.45 117.45 0 00-1.047-.084 45.612 45.612 0 00-1.131-.068 36.387 36.387 0 00-2.345-.084c-.689 0-1.225.041-1.606.125a3.01 3.01 0 00-1.103.504c-.353.252-.614.631-.782 1.135-.372 1.082-.558 2.809-.558 5.179s.274 4.084.823 5.136c.549 1.055 1.597 1.582 3.142 1.582 1.749 0 3.518-.055 5.305-.168l.893-.055v3.051c-1.675.523-3.835.783-6.477.783h-.643c-2.494-.018-4.277-.913-5.347-2.688-1.07-1.771-1.605-4.408-1.605-7.908s.464-6.013 1.396-7.545M144.885 155.661v-20.492h3.909v8.791h7.008v-8.791h3.91v20.492h-3.91v-8.117h-7.008v8.117zM161.889 155.661l6.897-20.492h4.439l6.645 20.492h-4.16l-1.452-4.535h-6.701l-1.48 4.535h-4.188zm6.701-8.006h4.747l-2.29-7.334-2.457 7.334zM181.434 155.661l1.787-20.492h5.444l3.407 13.998 3.379-13.998h5.416l1.899 20.492h-3.853l-1.34-13.689-3.295 13.689h-4.356l-3.434-13.689-1.201 13.689zM205.334 155.662v-20.493h8.795c2.029 0 3.5.57 4.412 1.709.838 1.025 1.256 2.566 1.256 4.619 0 1.193-.125 2.221-.377 3.078-.251.859-.558 1.518-.921 1.975a3.524 3.524 0 01-1.382 1.049c-.726.336-1.536.504-2.429.504-.652 0-1.703-.084-3.156-.252-1.451-.168-2.215-.27-2.289-.307v8.118h-3.909zm8.489-17.02h-4.579v5.99h4.579c.447 0 .81-.084 1.089-.252.633-.373.95-1.324.95-2.855-.019-1.922-.699-2.883-2.039-2.883M219.156 155.661l6.897-20.492h4.439l6.645 20.492h-4.16l-1.452-4.535h-6.701l-1.48 4.535h-4.188zm6.701-8.006h4.747l-2.29-7.334-2.457 7.334zM238.533 151.56c-.279-.961-.46-1.922-.544-2.883s-.126-2.08-.126-3.359c0-1.277.051-2.408.153-3.387.102-.98.298-1.922.587-2.828.288-.904.684-1.656 1.186-2.254 1.061-1.268 2.643-1.902 4.747-1.902 1.582 0 2.927.061 4.035.182 1.107.121 2.378.359 3.811.713v3.053c-.018 0-.172-.02-.46-.057a41.7 41.7 0 00-1.145-.127 54.951 54.951 0 00-1.55-.125 45.847 45.847 0 00-3.769-.168c-1.49 0-2.476.5-2.96 1.498-.485.999-.726 2.832-.726 5.5 0 2.67.223 4.451.67 5.348.465.914 1.415 1.371 2.848 1.371.558 0 1.131-.107 1.717-.322.587-.213 1.028-.424 1.327-.629l.446-.336v-3.668h-2.848v-2.49c1.099-.449 2.718-.672 4.859-.672.595 0 1.228.018 1.898.055v11.591h-2.792l-1.061-1.372c-.652.615-1.35 1.018-2.094 1.203-2.029.504-3.742.449-5.138-.168-.819-.354-1.466-.829-1.94-1.428-.476-.597-.852-1.377-1.131-2.339M255.538 155.661v-20.492h3.964l8.098 13.242v-13.242h3.908v20.492H267.6l-8.125-13.101v13.101zM275.893 135.925a5.067 5.067 0 011.381-.588c.457-.111.82-.168 1.09-.168s1.613.033 4.033.098c2.421.066 4.227.184 5.418.352v3.246h-8.069c-.688 0-1.117.168-1.285.504-.11.262-.167.617-.167 1.064v3.191l8.266.28v3.247l-8.266.253v3.19c0 .709.196 1.139.586 1.287.28.113.661.168 1.145.168h7.791v3.221c-.932.131-3.23.262-6.896.391l-1.814.084h-.518c-.195 0-.451-.014-.768-.041-.316-.029-.697-.127-1.145-.295s-.838-.391-1.173-.673c-.745-.671-1.117-1.706-1.117-3.106v-12.205c0-1.697.502-2.865 1.508-3.5M289.155 145.892h8.767v3.304h-8.767zM299.429 155.661l6.897-20.492h4.438l6.646 20.492h-4.16l-1.452-4.535h-6.701l-1.479 4.535h-4.189zm6.701-8.006h4.747l-2.29-7.334-2.457 7.334zM328.161 135.169c1.786 0 3.117.459 3.992 1.372 1.062 1.084 1.592 2.753 1.592 5.011 0 2.633-.55 4.377-1.647 5.236-.354.279-.624.457-.81.531-.188.074-.456.168-.811.279l3.882 8.062h-4.412l-3.378-7.754-3.435-.393v8.146h-3.91v-20.492h8.937zm-4.998 9.268h4.635c.726 0 1.242-.187 1.55-.561.307-.373.46-1.129.46-2.268s-.167-1.918-.502-2.338-.838-.629-1.508-.629h-4.635v5.796zM336.453 155.661v-20.492h8.684c4.729 0 7.092 3.443 7.092 10.33 0 4.256-1.015 7.205-3.043 8.848-1.08.877-2.43 1.314-4.049 1.314h-8.684zm11.867-10.189c0-3.396-.54-5.496-1.62-6.299-.484-.354-1.107-.531-1.87-.531h-4.468v13.521h4.468c2.326 0 3.49-2.23 3.49-6.691M355.801 135.925a5.065 5.065 0 011.383-.588c.455-.111.818-.168 1.089-.168.27 0 1.614.033 4.034.098 2.42.066 4.226.184 5.417.352v3.246h-8.069c-.688 0-1.117.168-1.284.504-.112.262-.168.617-.168 1.064v3.191l8.265.28v3.247l-8.265.253v3.19c0 .709.195 1.139.587 1.287.279.113.66.168 1.145.168h7.79v3.221c-.931.131-3.229.262-6.896.391l-1.815.084h-.517c-.195 0-.451-.014-.768-.041-.316-.029-.698-.127-1.145-.295a3.97 3.97 0 01-1.173-.673c-.745-.671-1.117-1.706-1.117-3.106v-12.205c-.001-1.697.502-2.865 1.507-3.5M370.208 155.661v-20.492h3.965l8.099 13.242v-13.242h3.908v20.492h-3.908l-8.125-13.101v13.101zM389.139 155.661v-20.492h3.965l8.098 13.242v-13.242h3.909v20.492h-3.909l-8.125-13.101v13.101zM409.494 135.925a5.065 5.065 0 011.383-.588c.455-.111.818-.168 1.089-.168.27 0 1.614.033 4.034.098 2.42.066 4.225.184 5.417.352v3.246h-8.069c-.688 0-1.117.168-1.284.504-.112.262-.168.617-.168 1.064v3.191l8.265.28v3.247l-8.265.253v3.19c0 .709.195 1.139.587 1.287.279.113.659.168 1.145.168h7.79v3.221c-.931.131-3.229.262-6.896.391l-1.815.084h-.517c-.195 0-.451-.014-.768-.041-.316-.029-.698-.127-1.145-.295a3.988 3.988 0 01-1.174-.673c-.744-.671-1.116-1.706-1.116-3.106v-12.205c-.001-1.697.502-2.865 1.507-3.5M430.881 151.687v-16.518h3.909v15.426c0 .709.194 1.139.586 1.287.278.113.661.168 1.146.168h7.007v3.611h-8.403c-2.831 0-4.245-1.324-4.245-3.974M445.22 150.595a18.477 18.477 0 01-.321-2.24c-.074-.84-.111-1.852-.111-3.037s.069-2.305.209-3.359c.14-1.054.33-1.949.572-2.688.242-.736.567-1.366.978-1.889.409-.523.823-.934 1.242-1.232s.936-.531 1.55-.699c.968-.281 1.987-.419 3.058-.419s1.852.017 2.346.054a11.52 11.52 0 011.563.238 5.05 5.05 0 011.41.518c.391.225.786.51 1.186.854.4.345.731.784.992 1.315.26.531.493 1.145.698 1.834.409 1.381.614 2.996.614 4.844s-.07 3.27-.21 4.268c-.14 1-.321 1.857-.544 2.576-.224.719-.526 1.334-.908 1.848s-.781.924-1.2 1.233c-.419.306-.927.544-1.521.712-1.378.41-3.193.541-5.445.393-1.154-.057-1.992-.195-2.513-.42-.521-.225-.973-.463-1.354-.715s-.702-.559-.963-.924a8.303 8.303 0 01-.754-1.314 7.977 7.977 0 01-.574-1.751m3.783-9.252a17.126 17.126 0 00-.224 1.777c-.056.691-.084 1.559-.084 2.604s.036 1.936.112 2.674c.074.736.199 1.367.377 1.889.177.523.441.916.796 1.176.632.467 1.638.701 3.016.701 1.303 0 2.279-.242 2.932-.729.911-.689 1.368-2.65 1.368-5.879 0-2.184-.117-3.629-.35-4.34-.232-.709-.446-1.213-.642-1.512a1.977 1.977 0 00-.824-.699c-.577-.242-1.256-.363-2.039-.363-.781 0-1.325.014-1.633.041-.307.027-.633.09-.977.182-.345.094-.614.238-.81.434-.196.197-.392.463-.587.799s-.338.751-.431 1.245M472.486 135.169c1.786 0 3.117.459 3.992 1.372 1.062 1.084 1.592 2.753 1.592 5.011 0 2.633-.55 4.377-1.647 5.236-.354.279-.624.457-.81.531-.187.074-.456.168-.81.279l3.881 8.062h-4.412l-3.378-7.754-3.435-.393v8.146h-3.91v-20.492h8.937zm-4.998 9.268h4.635c.726 0 1.242-.187 1.55-.561.307-.373.46-1.129.46-2.268s-.167-1.918-.502-2.338-.838-.629-1.508-.629h-4.635v5.796zM489.434 135.169c1.786 0 3.117.459 3.992 1.372 1.062 1.084 1.592 2.753 1.592 5.011 0 2.633-.55 4.377-1.647 5.236-.354.279-.624.457-.81.531-.188.074-.456.168-.811.279l3.882 8.062h-4.412l-3.378-7.754-3.435-.393v8.146h-3.91v-20.492h8.937zm-4.998 9.268h4.635c.726 0 1.242-.187 1.55-.561.307-.373.46-1.129.46-2.268s-.167-1.918-.502-2.338-.838-.629-1.508-.629h-4.635v5.796zM496.972 155.661l6.896-20.492h4.439l6.646 20.492h-4.16l-1.452-4.535h-6.701l-1.479 4.535h-4.189zm6.701-8.006h4.747l-2.29-7.334-2.457 7.334zM517.047 135.169h3.909v20.492h-3.909zM523.888 155.661v-20.492h3.965l8.099 13.242v-13.242h3.908v20.492h-3.908l-8.125-13.101v13.101zM544.243 135.925a5.065 5.065 0 011.383-.588c.455-.111.818-.168 1.089-.168.27 0 1.614.033 4.034.098 2.42.066 4.226.184 5.417.352v3.246h-8.069c-.688 0-1.117.168-1.284.504-.112.262-.168.617-.168 1.064v3.191l8.265.28v3.247l-8.265.253v3.19c0 .709.195 1.139.587 1.287.279.113.66.168 1.145.168h7.79v3.221c-.931.131-3.229.262-6.896.391l-1.815.084h-.517c-.195 0-.451-.014-.768-.041-.316-.029-.698-.127-1.145-.295a3.97 3.97 0 01-1.173-.673c-.745-.671-1.117-1.706-1.117-3.106v-12.205c-.001-1.697.502-2.865 1.507-3.5M20.7 62.862v-.25c0-24.869 19.375-45.239 45.875-45.239 15.75 0 25.25 4.249 34.375 11.997L88.825 43.991c-6.75-5.623-12.75-8.872-22.875-8.872-14 0-25.125 12.371-25.125 27.243v.25c0 15.996 11 27.743 26.5 27.743 7 0 13.25-1.749 18.125-5.248V72.61H66.075V55.988h38v37.991c-9 7.623-21.375 13.872-37.375 13.872-27.25.001-46-19.12-46-44.989M114.324 39.368h19v13.497c3.875-9.248 10.125-15.247 21.375-14.747v19.871h-1c-12.625 0-20.375 7.623-20.375 23.619v24.744h-19V39.368zM153.181 87.106v-.25c0-14.622 11.125-21.37 27-21.37 6.75 0 11.625 1.125 16.375 2.749v-1.124c0-7.873-4.875-12.247-14.375-12.247-7.25 0-12.375 1.374-18.5 3.624l-4.75-14.497c7.375-3.249 14.625-5.373 26-5.373 10.375 0 17.875 2.749 22.625 7.498 5 4.999 7.25 12.372 7.25 21.369v38.866h-18.375v-7.248c-4.625 5.124-11 8.498-20.25 8.498-12.625.001-23-7.247-23-20.495m43.625-4.374v-3.375c-3.25-1.499-7.5-2.499-12.125-2.499-8.125 0-13.125 3.249-13.125 9.248v.25c0 5.124 4.25 8.123 10.375 8.123 8.875 0 14.875-4.874 14.875-11.747M224.93 39.368h19v9.498c4.375-5.623 10-10.748 19.625-10.748 14.375 0 22.75 9.498 22.75 24.87v43.364h-19V68.986c0-8.998-4.25-13.622-11.5-13.622s-11.875 4.624-11.875 13.622v37.366h-19V39.368zM293.553 72.985v-.25c0-22.37 14.625-34.617 30.5-34.617 10.125 0 16.375 4.624 20.875 9.998V15.124h19v91.228h-19v-9.623c-4.625 6.25-11 10.873-20.875 10.873-15.625 0-30.5-12.248-30.5-34.617m51.625 0v-.25c0-11.123-7.375-18.496-16.25-18.496s-16.375 7.248-16.375 18.496v.25c0 11.122 7.5 18.496 16.375 18.496s16.25-7.374 16.25-18.496M456.677 96.613l8.125-12.498c7.25 5.248 14.875 7.998 21.125 7.998 5.5 0 8-2 8-4.999v-.25c0-4.124-6.5-5.499-13.875-7.749-9.375-2.748-20-7.123-20-20.121v-.25c0-13.621 11-21.245 24.5-21.245 8.5 0 17.75 2.874 25 7.749l-7.25 13.121c-6.625-3.873-13.25-6.248-18.125-6.248-4.625 0-7 2-7 4.624v.25c0 3.749 6.375 5.499 13.625 7.999 9.375 3.124 20.25 7.623 20.25 19.871v.25c0 14.871-11.125 21.621-25.625 21.621-9.375 0-19.875-3.125-28.75-10.123M520.3 86.49V54.746h-8V38.498h8V21.377h19v17.121h15.75v16.248H539.3v28.619c0 4.374 1.875 6.498 6.125 6.498 3.5 0 6.625-.874 9.375-2.374v15.247c-4 2.375-8.625 3.875-15 3.875-11.625 0-19.5-4.625-19.5-20.121M413.562 88.364h34.197v17.123h-34.197zM414.114 52.916h34.196v17.121h-34.196zM414.114 18.002h34.196v17.122h-34.196zM387.977 18.002h19.259v87.484h-19.259z"/><path fill="#90D2F5" d="M20.244 117.33h178.709v7.086H20.244z"/><path fill="#B5D22A" d="M198.956 117.33h178.712v7.086H198.956z"/><path fill="#FCDC00" d="M377.667 117.33h178.709v7.086H377.667z"/></svg>